<svg xmlns="http://www.w3.org/2000/svg" xmlns:xlink="http://www.w3.org/1999/xlink"><defs>
<symbol id="icon-001" viewBox="0 0 9 32">
<title>001</title>
<path fill="#d80027" d="M32 6.079c-1.178 0.522-2.442 0.876-3.769 1.034 1.356-0.812 2.394-2.1 2.885-3.629-1.272 0.752-2.675 1.298-4.171 1.594-1.198-1.278-2.901-2.074-4.791-2.074-3.625 0-6.565 2.939-6.565 6.563 0 0.514 0.058 1.016 0.17 1.496-5.455-0.274-10.292-2.887-13.529-6.859-0.566 0.968-0.888 2.096-0.888 3.299 0 2.278 1.16 4.287 2.919 5.463-1.076-0.036-2.088-0.332-2.973-0.824v0.082c0 3.179 2.264 5.833 5.265 6.437-0.55 0.148-1.13 0.23-1.73 0.23-0.424 0-0.834-0.042-1.236-0.122 0.836 2.61 3.259 4.507 6.131 4.559-2.246 1.76-5.077 2.805-8.152 2.805-0.53 0-1.052-0.032-1.566-0.090 2.905 1.866 6.355 2.953 10.062 2.953 12.076 0 18.677-10.002 18.677-18.677l-0.022-0.85c1.29-0.92 2.405-2.076 3.283-3.391z"/>
</symbol>
<symbol id="icon-002" viewBox="0 0 9 32">
<title>002</title>
<path fill="#d80027" style="fill: var(--color1, #d80027)" d="M32 6.079c-1.178 0.522-2.442 0.876-3.769 1.034 1.356-0.812 2.394-2.1 2.885-3.629-1.272 0.752-2.675 1.298-4.171 1.594-1.198-1.278-2.901-2.074-4.791-2.074-3.625 0-6.565 2.939-6.565 6.563 0 0.514 0.058 1.016 0.17 1.496-5.455-0.274-10.292-2.887-13.529-6.859-0.566 0.968-0.888 2.096-0.888 3.299 0 2.278 1.16 4.287 2.919 5.463-1.076-0.036-2.088-0.332-2.973-0.824v0.082c0 3.179 2.264 5.833 5.265 6.437-0.55 0.148-1.13 0.23-1.73 0.23-0.424 0-0.834-0.042-1.236-0.122 0.836 2.61 3.259 4.507 6.131 4.559-2.246 1.76-5.077 2.805-8.152 2.805-0.53 0-1.052-0.032-1.566-0.090 2.905 1.866 6.355 2.953 10.062 2.953 12.076 0 18.677-10.002 18.677-18.677l-0.022-0.85c1.29-0.92 2.405-2.076 3.283-3.391z"/>
</symbol>
<symbol id="icon-003" viewBox="0 0 9 32">
<title>003</title>
<path fill="#d80027" style="fill: var(--color1, #d80027)" d="M32 6.079c-1.178 0.522-2.442 0.876-3.769 1.034 1.356-0.812 2.394-2.1 2.885-3.629-1.272 0.752-2.675 1.298-4.171 1.594-1.198-1.278-2.901-2.074-4.791-2.074-3.625 0-6.565 2.939-6.565 6.563 0 0.514 0.058 1.016 0.17 1.496-5.455-0.274-10.292-2.887-13.529-6.859-0.566 0.968-0.888 2.096-0.888 3.299 0 2.278 1.16 4.287 2.919 5.463-1.076-0.036-2.088-0.332-2.973-0.824v0.082c0 3.179 2.264 5.833 5.265 6.437-0.55 0.148-1.13 0.23-1.73 0.23-0.424 0-0.834-0.042-1.236-0.122 0.836 2.61 3.259 4.507 6.131 4.559-2.246 1.76-5.077 2.805-8.152 2.805-0.53 0-1.052-0.032-1.566-0.090 2.905 1.866 6.355 2.953 10.062 2.953 12.076 0 18.677-10.002 18.677-18.677l-0.022-0.85c1.29-0.92 2.405-2.076 3.283-3.391z"/>
</symbol>
<symbol id="icon-004" viewBox="0 0 9 32">
<title>004</title>
<path fill="#d80027" style="fill: var(--color1, #d80027)" d="M32 6.079c-1.178 0.522-2.442 0.876-3.769 1.034 1.356-0.812 2.394-2.1 2.885-3.629-1.272 0.752-2.675 1.298-4.171 1.594-1.198-1.278-2.901-2.074-4.791-2.074-3.625 0-6.565 2.939-6.565 6.563 0 0.514 0.058 1.016 0.17 1.496-5.455-0.274-10.292-2.887-13.529-6.859-0.566 0.968-0.888 2.096-0.888 3.299 0 2.278 1.16 4.287 2.919 5.463-1.076-0.036-2.088-0.332-2.973-0.824v0.082c0 3.179 2.264 5.833 5.265 6.437-0.55 0.148-1.13 0.23-1.73 0.23-0.424 0-0.834-0.042-1.236-0.122 0.836 2.61 3.259 4.507 6.131 4.559-2.246 1.76-5.077 2.805-8.152 2.805-0.53 0-1.052-0.032-1.566-0.090 2.905 1.866 6.355 2.953 10.062 2.953 12.076 0 18.677-10.002 18.677-18.677l-0.022-0.85c1.29-0.92 2.405-2.076 3.283-3.391z"/>
</symbol>
<symbol id="icon-005" viewBox="0 0 9 32">
<title>005</title>
<path fill="#d80027" style="fill: var(--color1, #d80027)" d="M32 6.079c-1.178 0.522-2.442 0.876-3.769 1.034 1.356-0.812 2.394-2.1 2.885-3.629-1.272 0.752-2.675 1.298-4.171 1.594-1.198-1.278-2.901-2.074-4.791-2.074-3.625 0-6.565 2.939-6.565 6.563 0 0.514 0.058 1.016 0.17 1.496-5.455-0.274-10.292-2.887-13.529-6.859-0.566 0.968-0.888 2.096-0.888 3.299 0 2.278 1.16 4.287 2.919 5.463-1.076-0.036-2.088-0.332-2.973-0.824v0.082c0 3.179 2.264 5.833 5.265 6.437-0.55 0.148-1.13 0.23-1.73 0.23-0.424 0-0.834-0.042-1.236-0.122 0.836 2.61 3.259 4.507 6.131 4.559-2.246 1.76-5.077 2.805-8.152 2.805-0.53 0-1.052-0.032-1.566-0.090 2.905 1.866 6.355 2.953 10.062 2.953 12.076 0 18.677-10.002 18.677-18.677l-0.022-0.85c1.29-0.92 2.405-2.076 3.283-3.391z"/>
</symbol>
</defs><symbol id="crutches" viewBox="0 0 59.035 59.035">
<path d="M58.061,10.452l-8.033-8.033c-1.301-1.299-3.413-1.299-4.712,0l-1.474,1.474c-1.047,1.047-1.235,2.616-0.595,3.868  l-13.59,13.59L15.885,7.576c0.529-1.219,0.303-2.689-0.692-3.684l-1.474-1.474c-1.299-1.299-3.412-1.3-4.711,0l-8.034,8.033  c-1.299,1.3-1.299,3.413,0,4.712l1.474,1.474c0.649,0.649,1.503,0.974,2.355,0.974c0.522,0,1.038-0.136,1.513-0.379l15.78,15.779  l-0.845,0.845l0.684,0.684L6.381,50.093l-1.245,0.533c-1.061,0.455-1.824,1.404-2.043,2.538s0.139,2.298,0.955,3.115l0.293,0.293  C5,57.23,5.885,57.591,6.797,57.591c0.22,0,0.44-0.021,0.659-0.063c1.134-0.219,2.083-0.982,2.538-2.044l0.533-1.244l15.642-15.642  c0.19,0.077,0.392,0.115,0.594,0.115c0.405,0,0.812-0.154,1.121-0.463l1.774-1.774l1.709,1.709c0.288,0.286,0.666,0.43,1.045,0.43  c0.21,0,0.415-0.054,0.61-0.142l15.627,15.627l0.533,1.245c0.455,1.061,1.404,1.824,2.538,2.043  c0.219,0.042,0.439,0.063,0.659,0.063c0.912,0,1.797-0.36,2.456-1.019l0.293-0.293c0.816-0.817,1.174-1.982,0.955-3.116  c-0.218-1.134-0.982-2.082-2.044-2.537l-1.244-0.533L37.168,34.326c0.18-0.397,0.172-0.849-0.017-1.244l15.753-15.753  c0.423,0.184,0.874,0.282,1.328,0.282c0.854,0,1.706-0.324,2.355-0.974l1.474-1.474C59.36,13.865,59.36,11.752,58.061,10.452z   M42.303,24.516l-6.339-6.339l0.972-0.972l6.339,6.339L42.303,24.516z M34.398,19.438l6.784,6.784l-5.375,5.375l-1.252-1.252  l-1.523-1.523c0.014-0.022,0.021-0.045,0.035-0.067c0.095-0.157,0.17-0.314,0.244-0.472c0.036-0.078,0.082-0.155,0.113-0.233  c0.094-0.236,0.167-0.471,0.212-0.705c0.21-1.111-0.13-2.149-0.984-3.003l-1.579-1.579L34.398,19.438z M31.237,25.758  c0.109,0.109,0.184,0.212,0.249,0.314c0.054,0.087,0.098,0.176,0.13,0.268c0.002,0.006,0.006,0.013,0.008,0.019  c0.067,0.204,0.078,0.42,0.037,0.646c-0.1,0.475-0.443,1.026-0.975,1.559l-1.875,1.875l-1.552,1.552c0,0,0,0,0,0l-0.001,0  c-0.532,0.532-1.083,0.874-1.558,0.975c-0.226,0.041-0.441,0.03-0.645-0.037c-0.008-0.003-0.017-0.008-0.026-0.011  c-0.089-0.032-0.176-0.074-0.261-0.127c-0.102-0.065-0.207-0.141-0.316-0.251l-0.24-0.239l-6.219-6.219l6.784-6.784l3.466,3.466v0  L31.237,25.758z M23.071,18.177l-6.339,6.339l-0.972-0.972l6.339-6.339L23.071,18.177z M3.862,15.224L2.388,13.75  c-0.519-0.52-0.519-1.364,0-1.884l8.034-8.033c0.26-0.26,0.601-0.39,0.941-0.39s0.682,0.13,0.941,0.39l1.474,1.474  c0.519,0.52,0.519,1.364,0,1.884l-8.033,8.033C5.227,15.74,4.382,15.742,3.862,15.224z M14.65,9.17l6.328,6.328l-6.784,6.784  l-6.328-6.328L14.65,9.17z M8.157,54.695c-0.196,0.458-0.589,0.774-1.078,0.868c-0.491,0.096-0.972-0.054-1.323-0.405l-0.293-0.293  c-0.352-0.352-0.499-0.834-0.405-1.323s0.41-0.882,0.867-1.078l0.799-0.342l1.775,1.775L8.157,54.695z M9.684,52.255l-1.318-1.318  l14.982-14.982l1.318,1.318L9.684,52.255z M28.244,35.061l-1.479,1.48l-1.548-1.548c0.028,0.002,0.056-0.006,0.084-0.006  C25.337,34.99,25.373,35,25.411,35c0.207,0,0.418-0.021,0.632-0.061c0.234-0.044,0.469-0.118,0.705-0.212  c0.076-0.03,0.151-0.075,0.227-0.11c0.159-0.074,0.319-0.15,0.477-0.246c0.022-0.013,0.045-0.021,0.067-0.035l0.214,0.214  L28.244,35.061z M29.044,33.033l1.181-1.181l1.504-1.504l3.368,3.368l-2.685,2.685L29.044,33.033z M54.119,53.4  c0.095,0.489-0.054,0.972-0.405,1.324l-0.293,0.293c-0.352,0.352-0.833,0.5-1.323,0.405c-0.489-0.094-0.882-0.41-1.078-0.867  l-0.342-0.799l1.775-1.775l0.798,0.342C53.708,52.519,54.025,52.912,54.119,53.4z M49.492,52.114L34.51,37.132l1.318-1.318  L50.81,50.796L49.492,52.114z M44.982,22.423l-6.784-6.784l6.328-6.328l6.784,6.784L44.982,22.423z M56.647,13.75l-1.474,1.474  c-0.52,0.521-1.364,0.517-1.884,0L45.256,7.19c-0.519-0.52-0.519-1.364,0-1.884l1.474-1.474c0.521-0.521,1.365-0.519,1.884,0  l8.033,8.033C57.166,12.386,57.166,13.23,56.647,13.75z"/>
<g>
</g>
<g>
</g>
<g>
</g>
<g>
</g>
<g>
</g>
<g>
</g>
<g>
</g>
<g>
</g>
<g>
</g>
<g>
</g>
<g>
</g>
<g>
</g>
<g>
</g>
<g>
</g>
<g>
</g>
</symbol><symbol id="header-facebook">
  <path fill-rule="evenodd" d="M6.746,0.027 L5.127,0.024 C3.308,0.024 2.132,1.255 2.132,3.162 L2.132,4.608 L0.505,4.608 C0.364,4.608 0.250,4.726 0.250,4.869 L0.250,6.965 C0.250,7.108 0.364,7.225 0.505,7.225 L2.132,7.225 L2.132,12.514 C2.132,12.657 2.246,12.774 2.387,12.774 L4.511,12.774 C4.651,12.774 4.765,12.657 4.765,12.514 L4.765,7.225 L6.669,7.225 C6.809,7.225 6.923,7.108 6.923,6.965 L6.924,4.869 C6.924,4.799 6.897,4.734 6.849,4.684 C6.802,4.635 6.737,4.608 6.669,4.608 L4.765,4.608 L4.765,3.382 C4.765,2.792 4.903,2.493 5.655,2.493 L6.746,2.493 C6.886,2.493 7.000,2.376 7.000,2.233 L7.000,0.287 C7.000,0.143 6.886,0.027 6.746,0.027 Z"/>
</symbol><symbol id="header-menu-icon" viewBox="0 0 18 11">
  <path d="M0.750,10.752 L0.750,9.252 L18.000,9.252 L18.000,10.752 L0.750,10.752 ZM7.500,4.751 L18.000,4.751 L18.000,6.252 L7.500,6.252 L7.500,4.751 ZM4.500,0.251 L18.000,0.251 L18.000,1.752 L4.500,1.752 L4.500,0.251 Z"/>
</symbol><symbol id="header-twitter">
  <path fill-rule="evenodd" d="M11.669,0.718 C11.193,1.021 10.666,1.242 10.105,1.362 C9.656,0.845 9.017,0.524 8.308,0.524 C6.948,0.524 5.846,1.712 5.846,3.175 C5.846,3.382 5.868,3.586 5.910,3.779 C3.864,3.669 2.050,2.612 0.836,1.008 C0.624,1.400 0.503,1.855 0.503,2.341 C0.503,3.262 0.938,4.073 1.598,4.547 C1.194,4.534 0.815,4.414 0.483,4.217 L0.483,4.248 C0.483,5.533 1.332,6.604 2.457,6.848 C2.251,6.908 2.034,6.941 1.809,6.941 C1.650,6.941 1.496,6.924 1.345,6.894 C1.659,7.946 2.568,8.712 3.644,8.735 C2.802,9.445 1.740,9.869 0.587,9.869 C0.389,9.869 0.193,9.857 0.000,9.833 C1.090,10.586 2.383,11.024 3.774,11.024 C8.302,11.024 10.778,6.985 10.778,3.480 L10.770,3.137 C11.252,2.765 11.670,2.298 12.000,1.766 C11.558,1.976 11.085,2.120 10.587,2.184 C11.095,1.856 11.485,1.335 11.669,0.718 Z"/>
</symbol><symbol id="symbol-defs">

</symbol><symbol id="001" viewBox="0 0 9 32">
<title>001</title>
<path d=""/>
</symbol><symbol id="002" viewBox="0 0 9 32">
<title>002</title>
<path d=""/>
</symbol><symbol id="003" viewBox="0 0 9 32">
<title>003</title>
<path d=""/>
</symbol><symbol id="004" viewBox="0 0 9 32">
<title>004</title>
<path d=""/>
</symbol><symbol id="005" viewBox="0 0 9 32">
<title>005</title>
<path d=""/>
</symbol></svg>