<?xml version="1.0" encoding="iso-8859-1"?>
<!-- Generator: Adobe Illustrator 18.0.0, SVG Export Plug-In . SVG Version: 6.00 Build 0)  -->
<!DOCTYPE svg PUBLIC "-//W3C//DTD SVG 1.1//EN" "http://www.w3.org/Graphics/SVG/1.1/DTD/svg11.dtd">
<svg xmlns="http://www.w3.org/2000/svg" xmlns:xlink="http://www.w3.org/1999/xlink" version="1.1" id="Capa_1" x="0px" y="0px" viewBox="0 0 59.035 59.035" style="enable-background:new 0 0 59.035 59.035;" xml:space="preserve" width="512px" height="512px">
<path d="M58.061,10.452l-8.033-8.033c-1.301-1.299-3.413-1.299-4.712,0l-1.474,1.474c-1.047,1.047-1.235,2.616-0.595,3.868  l-13.59,13.59L15.885,7.576c0.529-1.219,0.303-2.689-0.692-3.684l-1.474-1.474c-1.299-1.299-3.412-1.3-4.711,0l-8.034,8.033  c-1.299,1.3-1.299,3.413,0,4.712l1.474,1.474c0.649,0.649,1.503,0.974,2.355,0.974c0.522,0,1.038-0.136,1.513-0.379l15.78,15.779  l-0.845,0.845l0.684,0.684L6.381,50.093l-1.245,0.533c-1.061,0.455-1.824,1.404-2.043,2.538s0.139,2.298,0.955,3.115l0.293,0.293  C5,57.23,5.885,57.591,6.797,57.591c0.22,0,0.44-0.021,0.659-0.063c1.134-0.219,2.083-0.982,2.538-2.044l0.533-1.244l15.642-15.642  c0.19,0.077,0.392,0.115,0.594,0.115c0.405,0,0.812-0.154,1.121-0.463l1.774-1.774l1.709,1.709c0.288,0.286,0.666,0.43,1.045,0.43  c0.21,0,0.415-0.054,0.61-0.142l15.627,15.627l0.533,1.245c0.455,1.061,1.404,1.824,2.538,2.043  c0.219,0.042,0.439,0.063,0.659,0.063c0.912,0,1.797-0.36,2.456-1.019l0.293-0.293c0.816-0.817,1.174-1.982,0.955-3.116  c-0.218-1.134-0.982-2.082-2.044-2.537l-1.244-0.533L37.168,34.326c0.18-0.397,0.172-0.849-0.017-1.244l15.753-15.753  c0.423,0.184,0.874,0.282,1.328,0.282c0.854,0,1.706-0.324,2.355-0.974l1.474-1.474C59.36,13.865,59.36,11.752,58.061,10.452z   M42.303,24.516l-6.339-6.339l0.972-0.972l6.339,6.339L42.303,24.516z M34.398,19.438l6.784,6.784l-5.375,5.375l-1.252-1.252  l-1.523-1.523c0.014-0.022,0.021-0.045,0.035-0.067c0.095-0.157,0.17-0.314,0.244-0.472c0.036-0.078,0.082-0.155,0.113-0.233  c0.094-0.236,0.167-0.471,0.212-0.705c0.21-1.111-0.13-2.149-0.984-3.003l-1.579-1.579L34.398,19.438z M31.237,25.758  c0.109,0.109,0.184,0.212,0.249,0.314c0.054,0.087,0.098,0.176,0.13,0.268c0.002,0.006,0.006,0.013,0.008,0.019  c0.067,0.204,0.078,0.42,0.037,0.646c-0.1,0.475-0.443,1.026-0.975,1.559l-1.875,1.875l-1.552,1.552c0,0,0,0,0,0l-0.001,0  c-0.532,0.532-1.083,0.874-1.558,0.975c-0.226,0.041-0.441,0.03-0.645-0.037c-0.008-0.003-0.017-0.008-0.026-0.011  c-0.089-0.032-0.176-0.074-0.261-0.127c-0.102-0.065-0.207-0.141-0.316-0.251l-0.24-0.239l-6.219-6.219l6.784-6.784l3.466,3.466v0  L31.237,25.758z M23.071,18.177l-6.339,6.339l-0.972-0.972l6.339-6.339L23.071,18.177z M3.862,15.224L2.388,13.75  c-0.519-0.52-0.519-1.364,0-1.884l8.034-8.033c0.26-0.26,0.601-0.39,0.941-0.39s0.682,0.13,0.941,0.39l1.474,1.474  c0.519,0.52,0.519,1.364,0,1.884l-8.033,8.033C5.227,15.74,4.382,15.742,3.862,15.224z M14.65,9.17l6.328,6.328l-6.784,6.784  l-6.328-6.328L14.65,9.17z M8.157,54.695c-0.196,0.458-0.589,0.774-1.078,0.868c-0.491,0.096-0.972-0.054-1.323-0.405l-0.293-0.293  c-0.352-0.352-0.499-0.834-0.405-1.323s0.41-0.882,0.867-1.078l0.799-0.342l1.775,1.775L8.157,54.695z M9.684,52.255l-1.318-1.318  l14.982-14.982l1.318,1.318L9.684,52.255z M28.244,35.061l-1.479,1.48l-1.548-1.548c0.028,0.002,0.056-0.006,0.084-0.006  C25.337,34.99,25.373,35,25.411,35c0.207,0,0.418-0.021,0.632-0.061c0.234-0.044,0.469-0.118,0.705-0.212  c0.076-0.03,0.151-0.075,0.227-0.11c0.159-0.074,0.319-0.15,0.477-0.246c0.022-0.013,0.045-0.021,0.067-0.035l0.214,0.214  L28.244,35.061z M29.044,33.033l1.181-1.181l1.504-1.504l3.368,3.368l-2.685,2.685L29.044,33.033z M54.119,53.4  c0.095,0.489-0.054,0.972-0.405,1.324l-0.293,0.293c-0.352,0.352-0.833,0.5-1.323,0.405c-0.489-0.094-0.882-0.41-1.078-0.867  l-0.342-0.799l1.775-1.775l0.798,0.342C53.708,52.519,54.025,52.912,54.119,53.4z M49.492,52.114L34.51,37.132l1.318-1.318  L50.81,50.796L49.492,52.114z M44.982,22.423l-6.784-6.784l6.328-6.328l6.784,6.784L44.982,22.423z M56.647,13.75l-1.474,1.474  c-0.52,0.521-1.364,0.517-1.884,0L45.256,7.19c-0.519-0.52-0.519-1.364,0-1.884l1.474-1.474c0.521-0.521,1.365-0.519,1.884,0  l8.033,8.033C57.166,12.386,57.166,13.23,56.647,13.75z"/>
<g>
</g>
<g>
</g>
<g>
</g>
<g>
</g>
<g>
</g>
<g>
</g>
<g>
</g>
<g>
</g>
<g>
</g>
<g>
</g>
<g>
</g>
<g>
</g>
<g>
</g>
<g>
</g>
<g>
</g>
</svg>
