<svg
  xmlns="http://www.w3.org/2000/svg"
  width="0.247cm" height="0.459cm">
  <path fill-rule="evenodd"
        d="M6.746,0.027 L5.127,0.024 C3.308,0.024 2.132,1.255 2.132,3.162 L2.132,4.608 L0.505,4.608 C0.364,4.608 0.250,4.726 0.250,4.869 L0.250,6.965 C0.250,7.108 0.364,7.225 0.505,7.225 L2.132,7.225 L2.132,12.514 C2.132,12.657 2.246,12.774 2.387,12.774 L4.511,12.774 C4.651,12.774 4.765,12.657 4.765,12.514 L4.765,7.225 L6.669,7.225 C6.809,7.225 6.923,7.108 6.923,6.965 L6.924,4.869 C6.924,4.799 6.897,4.734 6.849,4.684 C6.802,4.635 6.737,4.608 6.669,4.608 L4.765,4.608 L4.765,3.382 C4.765,2.792 4.903,2.493 5.655,2.493 L6.746,2.493 C6.886,2.493 7.000,2.376 7.000,2.233 L7.000,0.287 C7.000,0.143 6.886,0.027 6.746,0.027 Z"/>
</svg>
